<svg width="77" height="76" viewBox="0 0 77 76" fill="none" xmlns="http://www.w3.org/2000/svg">
<path d="M67.6047 14.3308C62.4945 7.89844 55.4334 3.29982 47.4841 1.22691C39.5347 -0.845992 31.1272 -0.281027 23.5266 2.83679C15.9261 5.9546 9.54373 11.4566 5.34004 18.5148C1.13634 25.573 -0.661274 33.8055 0.217699 41.9735H9.33338C8.67243 35.8315 10.2593 28.6347 13.4204 23.3272C16.5814 18.0197 21.3806 13.8825 27.0959 11.538C32.8112 9.19353 39.1334 8.7687 45.111 10.3274C51.0886 11.8862 56.3982 15.3442 60.2409 20.181L67.6047 14.3308Z" fill="#6EFACC"/>
<path d="M77 37.9167C77 45.7745 74.5586 53.4382 70.0135 59.8482C65.4685 66.2582 59.0441 71.0977 51.6289 73.6977C44.2136 76.2976 36.1738 76.5295 28.621 74.3613C21.0682 72.1931 14.3756 67.7319 9.46863 61.5946L16.8142 55.7215C20.5041 60.3366 25.5367 63.6912 31.2161 65.3216C36.8955 66.952 42.9411 66.7776 48.5171 64.8226C54.0931 62.8675 58.9239 59.2284 62.3416 54.4083C65.7593 49.5883 67.5951 43.8254 67.5951 37.9167H77Z" fill="#6EFACC"/>
<path d="M1.16663 37.9166C1.16663 35.6615 2.9948 33.8333 5.24996 33.8333H15.5052C17.4797 33.8333 19.1713 35.2461 19.5232 37.189C19.977 39.6947 18.0517 42 15.5052 42H5.24996C2.99479 42 1.16663 40.1718 1.16663 37.9166Z" fill="#6EFACC"/>
<path d="M33.822 39.5444C32.6498 36.8476 34.6264 33.8333 37.5669 33.8333H39.375C41.6301 33.8333 43.4583 35.6615 43.4583 37.9166C43.4583 40.1718 41.6301 42 39.375 42H37.5669C35.9411 42 34.4701 41.0355 33.822 39.5444Z" fill="#6EFACC"/>
<path d="M24.3025 27.6853C22.6902 29.9227 21.6294 32.5094 21.2068 35.2346C20.7841 37.9598 21.0115 40.7464 21.8704 43.367C22.7293 45.9876 24.1954 48.3682 26.1491 50.3145C28.1029 52.2609 30.489 53.7179 33.1128 54.5669C35.7367 55.4158 38.5241 55.6326 41.2477 55.1996C43.9713 54.7666 46.554 53.6961 48.7852 52.0752C51.0164 50.4544 52.833 48.3292 54.0868 45.8729C55.3406 43.4166 55.9962 40.6988 56 37.941L45.4328 37.9263C45.4313 39.0188 45.1716 40.0956 44.6749 41.0686C44.1782 42.0417 43.4585 42.8837 42.5746 43.5258C41.6907 44.1679 40.6675 44.592 39.5885 44.7635C38.5095 44.9351 37.4053 44.8492 36.3658 44.5129C35.3263 44.1765 34.3811 43.5993 33.6071 42.8282C32.8331 42.0572 32.2522 41.1141 31.912 40.0759C31.5717 39.0377 31.4816 37.9338 31.6491 36.8542C31.8165 35.7745 32.2367 34.7498 32.8755 33.8634L24.3025 27.6853Z" fill="#6EFACC"/>
<rect x="45.5" y="6.41669" width="10.5" height="31.5" fill="#6EFACC"/>
<path d="M57.75 37.9166C57.75 35.6615 59.5782 33.8333 61.8333 33.8333H77V38.7916C77 40.5636 75.5636 42 73.7917 42H61.8333C59.5782 42 57.75 40.1718 57.75 37.9166Z" fill="#6EFACC"/>
</svg>
