<svg width="180" height="205" viewBox="0 0 180 205" fill="none" xmlns="http://www.w3.org/2000/svg">
<path d="M166.9 0H88.9773C85.5029 3.33722e-05 82.1709 1.38023 79.7142 3.83697C77.2575 6.29371 75.8773 9.62574 75.8773 13.1001V53.5148H67.0239C63.1404 53.5191 59.4171 55.0638 56.671 57.8098C53.9249 60.5559 52.3803 64.2792 52.3759 68.1627V84.9723C52.3759 85.6397 52.6411 86.2798 53.113 86.7518C53.585 87.2237 54.2251 87.4889 54.8925 87.4889C55.56 87.4889 56.2001 87.2237 56.6721 86.7518C57.144 86.2798 57.4091 85.6397 57.4091 84.9723V68.1627C57.412 65.6136 58.4259 63.1698 60.2284 61.3674C62.0309 59.565 64.4747 58.5511 67.0238 58.5483H75.8772V125.504C75.3959 125.572 74.932 125.648 74.4855 125.73C71.8786 123.01 68.2506 121.836 65.1808 121.357C67.8928 116.751 68.61 110.766 66.9359 106.096C65.4167 101.857 62.1997 98.9193 57.6322 97.5999C49.7027 95.309 45.5173 98.6323 43.5037 101.412C40.7045 97.9686 36.5445 97.0904 31.9287 99.0202L31.7878 99.0844C26.1844 101.843 23.549 107.217 24.2838 114.301C21.2995 113.212 16.8614 112.697 11.1052 115.058C5.34821 117.419 1.66302 122.46 1.24727 128.542C1.04167 131.654 1.71794 134.76 3.1984 137.505C4.67886 140.25 6.90348 142.521 9.61671 144.058C9.80244 144.166 9.97898 144.279 10.1603 144.389C1.2833 147.16 0 150.14 0 152.361V152.587C0.00388934 156.183 1.08277 159.696 3.09808 162.674C5.11338 165.653 7.97308 167.961 11.3099 169.302C17.4072 171.795 28.2986 177.777 32.7318 189.833C32.9284 190.367 33.2679 191.44 33.4404 191.994C34.0441 195.846 38.2688 198.945 46.0042 201.207C52.8966 203.223 61.9361 204.333 71.4578 204.333C88.68 204.333 107.815 200.535 109.446 192.204C109.658 191.526 110.138 190.03 110.421 189.313C111.742 186 113.62 182.937 115.975 180.258H166.9C168.62 180.258 170.324 179.919 171.913 179.261C173.502 178.602 174.947 177.637 176.163 176.421C177.38 175.204 178.344 173.76 179.003 172.171C179.661 170.581 180 168.878 180 167.158V13.1001C180 11.3797 179.661 9.67626 179.003 8.08688C178.344 6.4975 177.38 5.05336 176.163 3.83691C174.947 2.62045 173.502 1.65551 171.913 0.997171C170.324 0.338834 168.62 -5.50804e-06 166.9 0ZM135.663 6.55023H140.399C140.729 6.55023 141.056 6.61532 141.362 6.74179C141.667 6.86826 141.944 7.05364 142.178 7.28732C142.412 7.52101 142.597 7.79844 142.724 8.10377C142.85 8.4091 142.915 8.73635 142.915 9.06683C142.915 9.39732 142.85 9.72457 142.724 10.0299C142.597 10.3352 142.412 10.6127 142.178 10.8463C141.944 11.08 141.667 11.2654 141.362 11.3919C141.056 11.5183 140.729 11.5834 140.399 11.5834H135.663C134.996 11.5834 134.356 11.3183 133.884 10.8463C133.412 10.3744 133.147 9.73428 133.147 9.06683C133.147 8.39939 133.412 7.75928 133.884 7.28732C134.356 6.81537 134.996 6.55023 135.663 6.55023ZM115.478 6.55023H127.317C127.648 6.55023 127.975 6.61532 128.28 6.74179C128.586 6.86826 128.863 7.05364 129.097 7.28732C129.33 7.52101 129.516 7.79844 129.642 8.10377C129.769 8.4091 129.834 8.73635 129.834 9.06683C129.834 9.39732 129.769 9.72457 129.642 10.0299C129.516 10.3352 129.33 10.6127 129.097 10.8463C128.863 11.08 128.586 11.2654 128.28 11.3919C127.975 11.5183 127.648 11.5834 127.317 11.5834H115.478C114.811 11.5834 114.171 11.3183 113.699 10.8463C113.227 10.3744 112.962 9.73428 112.962 9.06683C112.962 8.39939 113.227 7.75928 113.699 7.28732C114.171 6.81537 114.811 6.55023 115.478 6.55023ZM99.7477 134.301C100.388 134.456 101.014 134.619 101.626 134.791C106.607 136.196 109.059 137.723 109.991 138.551C109.174 139.34 107.001 140.784 102.496 142.101C97.0543 143.693 90.0423 144.569 82.7511 144.569C75.46 144.569 68.448 143.693 63.0062 142.101C58.5012 140.784 56.3288 139.34 55.5115 138.551C56.4437 137.723 58.895 136.196 63.8768 134.791C64.1872 134.703 64.5084 134.621 64.8273 134.538C67.7017 136.838 74.3764 138.451 82.1509 138.451C90.1902 138.452 97.0478 136.726 99.7477 134.301ZM83.9476 131.363C83.9476 130.144 86.1359 129.155 88.8354 129.155C91.5349 129.155 93.7236 130.144 93.7236 131.363C93.7236 132.582 91.5351 133.57 88.8354 133.57C86.1357 133.57 83.9476 132.582 83.9476 131.363ZM36.0268 149.223C36.0164 148.074 36.2562 146.936 36.7295 145.889C37.2027 144.842 37.8982 143.911 38.7675 143.16C41.9456 140.418 46.0513 138.995 50.2444 139.182C50.9579 142.956 57.153 146.218 66.1374 148.044C61.948 151.476 56.4249 153.673 51.9412 155.012L36.3199 154.93C36.1382 152.975 36.0389 151.067 36.0268 149.223ZM6.26904 128.885C6.40121 126.872 7.1066 124.939 8.30192 123.314C9.49723 121.689 11.1326 120.44 13.0148 119.715C16.9622 118.097 20.4455 117.98 23.3655 119.368C24.0684 119.703 24.8492 119.839 25.6239 119.763C26.3986 119.686 27.1377 119.4 27.7616 118.934C28.3855 118.469 28.8706 117.842 29.1645 117.121C29.4583 116.4 29.5499 115.613 29.4293 114.844C28.5614 109.342 30.0794 105.571 33.9419 103.634C36.6838 102.508 38.5422 102.958 39.9647 105.085C40.3642 105.689 40.9103 106.183 41.5521 106.518C42.1939 106.854 42.9104 107.022 43.6346 107.005C44.3587 106.989 45.0669 106.789 45.6929 106.425C46.3189 106.06 46.8422 105.543 47.2139 104.921C48.9555 101.998 51.9059 101.185 56.2354 102.435C59.2272 103.3 61.2334 105.102 62.198 107.794C63.4576 111.308 62.714 116.13 60.3888 119.519C59.9676 120.129 59.7122 120.838 59.6475 121.577C59.5828 122.315 59.7111 123.058 60.0198 123.732C60.3285 124.406 60.807 124.988 61.4084 125.422C62.0099 125.855 62.7136 126.125 63.4507 126.205C65.1725 126.362 66.8563 126.804 68.4331 127.514C67.3468 127.951 66.3199 128.523 65.3766 129.217C59.9455 130.463 55.3958 132.243 52.726 134.334C46.4333 133.536 41.6323 135.176 38.1935 137.327C38.081 137.397 37.9508 137.432 37.8187 137.428C37.6867 137.425 37.5585 137.383 37.4498 137.308C37.3411 137.233 37.2566 137.128 37.2067 137.006C37.1568 136.883 37.1436 136.749 37.1687 136.619C39.5734 123.919 44.9366 116.094 45.0494 115.937C45.4349 115.391 45.5878 114.715 45.4745 114.056C45.3612 113.398 44.9911 112.811 44.4454 112.426C44.1753 112.235 43.8701 112.099 43.5475 112.026C43.2249 111.954 42.891 111.945 42.565 112.001C41.9066 112.114 41.3202 112.484 40.9348 113.03C40.6193 113.477 36.1413 119.946 33.2985 130.702C33.2589 130.853 33.179 130.99 33.0673 131.099C32.9557 131.208 32.8165 131.285 32.6647 131.321C32.5129 131.357 32.3542 131.351 32.2055 131.303C32.0568 131.256 31.9238 131.169 31.8207 131.052C29.2972 128.184 25.9813 126.127 22.2907 125.139C21.6388 124.996 20.9566 125.117 20.3942 125.477C19.8318 125.836 19.4352 126.404 19.2917 127.056C19.1482 127.708 19.2696 128.39 19.629 128.953C19.9885 129.515 20.5567 129.912 21.2085 130.055C23.3408 130.674 25.3032 131.772 26.9455 133.266C28.5878 134.761 29.8663 136.611 30.6833 138.675C31.1699 139.861 31.3649 141.146 31.2518 142.423C30.8894 146.576 30.8927 150.752 31.2617 154.904L25.3574 154.873C24.172 152.207 22.698 149.68 20.9618 147.335C18.566 144.223 15.5658 141.627 12.1413 139.704C10.2441 138.636 8.68663 137.054 7.64789 135.14C6.60915 133.226 6.13124 131.058 6.26904 128.885ZM105.739 187.466C105.302 188.573 104.512 191.205 104.512 191.205C104.058 194.03 92.3064 199.299 71.4579 199.299C62.4012 199.299 53.863 198.261 47.417 196.376C40.5271 194.361 38.5102 192.086 38.4062 191.165C38.4062 191.165 37.7713 188.954 37.4559 188.097C32.3563 174.229 20.0793 167.45 13.2147 164.643C10.8045 163.678 8.73773 162.015 7.27989 159.866C5.82205 157.718 5.03968 155.183 5.03326 152.587V152.454C5.4011 151.752 7.89044 150.038 15.103 148.245C15.7605 148.906 16.3725 149.611 16.9347 150.354C17.7542 151.449 18.5033 152.595 19.1775 153.786C17.5196 153.45 15.8862 153.003 14.2883 152.448C13.9775 152.332 13.6467 152.278 13.3151 152.29C12.9834 152.302 12.6574 152.38 12.3558 152.518C12.0542 152.657 11.783 152.853 11.5577 153.097C11.3325 153.341 11.1577 153.627 11.0434 153.938C10.9291 154.25 10.8776 154.581 10.8917 154.913C10.9059 155.244 10.9855 155.57 11.126 155.87C11.2665 156.171 11.4651 156.441 11.7103 156.664C11.9555 156.888 12.2425 157.061 12.5549 157.173C21.4412 160.433 45.5628 162.709 71.2143 162.709C95.1053 162.709 118.167 160.75 128.6 157.833C129.239 157.65 129.779 157.221 130.103 156.641C130.427 156.061 130.509 155.376 130.33 154.736C130.151 154.096 129.726 153.553 129.148 153.225C128.571 152.897 127.886 152.811 127.245 152.986C123.922 153.847 120.548 154.501 117.143 154.944C113.31 151.644 109.036 148.893 104.445 146.77C105.962 146.315 107.447 145.76 108.891 145.109C112.154 145.469 115.254 145.878 118.145 146.335C132.99 148.681 137.383 151.501 137.882 152.454V152.587C137.876 155.183 137.093 157.718 135.635 159.867C134.178 162.015 132.111 163.678 129.7 164.643C123.04 167.366 111.071 173.952 105.739 187.466ZM173.126 165.316C173.126 167.313 172.333 169.228 170.921 170.64C169.509 172.052 167.594 172.845 165.597 172.845H124.741C126.924 171.47 129.22 170.285 131.605 169.302C134.942 167.961 137.802 165.653 139.817 162.674C141.833 159.696 142.911 156.183 142.915 152.587V152.361C142.915 149.376 140.605 145.017 120.626 141.64C118.723 141.318 116.719 141.02 114.644 140.742C115.083 140.057 115.322 139.264 115.335 138.451C115.335 134.339 107.923 130.748 98.2454 128.815L98.2446 128.814C98.2446 128.814 93.373 125.332 82.7509 125.116V98.7628H94.8672C95.4437 102.312 97.2213 105.555 99.9025 107.95C102.584 110.346 106.006 111.748 109.597 111.922C113.189 112.097 116.731 111.033 119.631 108.909C122.532 106.784 124.616 103.729 125.533 100.252C125.624 99.8908 125.631 99.5134 125.554 99.1489C125.476 98.7844 125.317 98.4424 125.087 98.1491C124.857 97.8558 124.563 97.619 124.227 97.4568C123.892 97.2946 123.524 97.2113 123.151 97.2133H123.017C122.473 97.217 121.946 97.4 121.516 97.7339C121.087 98.0678 120.779 98.534 120.642 99.0603C120.14 100.893 119.157 102.558 117.796 103.884C116.435 105.209 114.744 106.147 112.898 106.599C111.053 107.052 109.12 107.003 107.3 106.458C105.479 105.912 103.838 104.89 102.545 103.497C101.253 102.105 100.356 100.392 99.9477 98.536C99.5395 96.6803 99.6346 94.7491 100.223 92.9425C100.812 91.1358 101.873 89.5194 103.296 88.2604C104.719 87.0015 106.453 86.1459 108.318 85.7821C108.887 85.6803 109.403 85.3829 109.776 84.9413C110.149 84.4998 110.356 83.9418 110.361 83.3638V83.2368C110.361 82.8763 110.282 82.5201 110.129 82.1936C109.976 81.8672 109.752 81.5785 109.475 81.3481C109.198 81.1177 108.873 80.9511 108.524 80.8604C108.175 80.7696 107.81 80.7568 107.456 80.8229C104.288 81.4253 101.382 82.9864 99.1308 85.2949C96.8796 87.6034 95.392 90.5478 94.8693 93.7296H82.7509V58.548H94.8861C95.4847 62.084 97.2764 65.3083 99.9627 67.6841C102.649 70.06 106.068 71.4441 109.651 71.606C113.233 71.768 116.763 70.698 119.653 68.5742C122.543 66.4504 124.618 63.401 125.533 59.9335C125.624 59.5721 125.631 59.1947 125.554 58.8301C125.476 58.4656 125.317 58.1236 125.087 57.8303C124.857 57.5371 124.563 57.3003 124.227 57.1381C123.892 56.9759 123.524 56.8926 123.151 56.8945H123.017C122.473 56.8982 121.946 57.0812 121.516 57.4151C121.087 57.749 120.779 58.2152 120.642 58.7415C120.14 60.5742 119.157 62.2395 117.796 63.5651C116.435 64.8906 114.744 65.8281 112.898 66.2806C111.053 66.7331 109.12 66.6842 107.3 66.1388C105.479 65.5934 103.838 64.5714 102.545 63.1787C101.253 61.7859 100.356 60.073 99.9477 58.2173C99.5395 56.3615 99.6346 54.4303 100.223 52.6237C100.812 50.8171 101.873 49.2006 103.296 47.9417C104.719 46.6828 106.453 45.8271 108.318 45.4633C108.887 45.3615 109.403 45.0642 109.776 44.6226C110.149 44.181 110.356 43.623 110.361 43.045V42.9181C110.361 42.5575 110.282 42.2013 110.129 41.8749C109.976 41.5485 109.752 41.2598 109.475 41.0293C109.198 40.7989 108.873 40.6324 108.524 40.5416C108.175 40.4508 107.81 40.438 107.456 40.5041C104.271 41.11 101.351 42.6852 99.0949 45.0141C96.8392 47.3431 95.3582 50.3121 94.8544 53.515H82.7509V25.2981C82.7509 23.3013 83.5441 21.3863 84.9561 19.9744C86.368 18.5625 88.283 17.7693 90.2798 17.7693H165.597C167.594 17.7693 169.509 18.5625 170.921 19.9744C172.333 21.3863 173.126 23.3013 173.126 25.2981L173.126 165.316Z" fill="#0E1913"/>
<path d="M123.169 83.699C117.405 86.1144 112.681 90.9929 110.015 94.2112L108.256 92.0676C107.76 91.4717 107.049 91.0961 106.277 91.0228C105.505 90.9494 104.736 91.1842 104.137 91.6759C103.537 92.1677 103.157 92.8765 103.078 93.6477C102.999 94.4189 103.229 95.1899 103.717 95.7925L107.833 100.808C108.108 101.144 108.455 101.414 108.847 101.599C109.24 101.785 109.669 101.881 110.103 101.88C110.151 101.88 110.199 101.879 110.247 101.877C110.706 101.854 111.152 101.725 111.551 101.498C111.95 101.272 112.291 100.956 112.546 100.574C112.602 100.49 118.249 92.1278 125.439 89.1147C126.157 88.8137 126.726 88.2397 127.021 87.519C127.316 86.7984 127.313 85.99 127.012 85.2718C126.711 84.5537 126.137 83.9845 125.416 83.6895C124.695 83.3945 123.887 83.3979 123.169 83.699Z" fill="#0E1913"/>
<path d="M123.169 43.4939C117.405 45.9093 112.681 50.7878 110.015 54.0064L108.256 51.8625C107.76 51.2666 107.049 50.891 106.277 50.8177C105.505 50.7443 104.736 50.9791 104.137 51.4709C103.537 51.9626 103.157 52.6714 103.078 53.4426C102.999 54.2138 103.229 54.9848 103.717 55.5874L107.833 60.6035C108.108 60.9389 108.455 61.209 108.847 61.3944C109.24 61.5798 109.669 61.6758 110.103 61.6756C110.151 61.6756 110.199 61.6744 110.247 61.6721C110.706 61.6493 111.152 61.5197 111.551 61.2934C111.95 61.0672 112.291 60.7508 112.546 60.3694C112.602 60.2852 118.249 51.9227 125.439 48.9097C125.794 48.7606 126.117 48.543 126.389 48.2692C126.66 47.9954 126.875 47.6708 127.021 47.314C127.167 46.9571 127.242 46.575 127.24 46.1894C127.238 45.8038 127.161 45.4224 127.012 45.0668C126.863 44.7111 126.645 44.3884 126.371 44.1169C126.097 43.8454 125.773 43.6305 125.416 43.4844C125.059 43.3384 124.677 43.264 124.291 43.2657C123.906 43.2673 123.524 43.3448 123.169 43.4939Z" fill="#0E1913"/>
<path d="M160.103 48.594H135.663C134.996 48.594 134.356 48.8591 133.884 49.3311C133.412 49.803 133.146 50.4432 133.146 51.1106C133.146 51.778 133.412 52.4182 133.884 52.8901C134.356 53.3621 134.996 53.6272 135.663 53.6272H160.103C160.77 53.6272 161.411 53.3621 161.882 52.8901C162.354 52.4182 162.62 51.778 162.62 51.1106C162.62 50.4432 162.354 49.803 161.882 49.3311C161.411 48.8591 160.77 48.594 160.103 48.594Z" fill="#0E1913"/>
<path d="M160.103 59.2524H135.663C134.996 59.2524 134.356 59.5176 133.884 59.9895C133.412 60.4615 133.146 61.1016 133.146 61.769C133.146 62.4365 133.412 63.0766 133.884 63.5486C134.356 64.0205 134.996 64.2857 135.663 64.2857H160.103C160.77 64.2857 161.411 64.0205 161.882 63.5486C162.354 63.0766 162.62 62.4365 162.62 61.769C162.62 61.1016 162.354 60.4615 161.882 59.9895C161.411 59.5176 160.77 59.2524 160.103 59.2524Z" fill="#0E1913"/>
<path d="M160.103 88.1274H135.663C134.996 88.1274 134.356 88.3926 133.884 88.8645C133.412 89.3365 133.146 89.9766 133.146 90.644C133.146 91.3115 133.412 91.9516 133.884 92.4236C134.356 92.8955 134.996 93.1607 135.663 93.1607H160.103C160.77 93.1607 161.411 92.8955 161.882 92.4236C162.354 91.9516 162.62 91.3115 162.62 90.644C162.62 89.9766 162.354 89.3365 161.882 88.8645C161.411 88.3926 160.77 88.1274 160.103 88.1274Z" fill="#0E1913"/>
<path d="M160.103 98.7861H135.663C134.996 98.7861 134.356 99.0513 133.884 99.5232C133.412 99.9952 133.146 100.635 133.146 101.303C133.146 101.97 133.412 102.61 133.884 103.082C134.356 103.554 134.996 103.819 135.663 103.819H160.103C160.77 103.819 161.411 103.554 161.882 103.082C162.354 102.61 162.62 101.97 162.62 101.303C162.62 100.635 162.354 99.9952 161.882 99.5232C161.411 99.0513 160.77 98.7861 160.103 98.7861Z" fill="#0E1913"/>
</svg>
