<svg width="132" height="132" viewBox="0 0 132 132" fill="none" xmlns="http://www.w3.org/2000/svg">
<path d="M4 78.3999V128" stroke="#0E1913" stroke-width="8" stroke-linecap="round" stroke-linejoin="round"/>
<path d="M4 86.6665H32.9334C37.3183 86.6665 41.5236 88.4086 44.6242 91.5091C47.7248 94.6097 49.4667 98.8152 49.4667 103.2H70.1334C74.5181 103.2 78.7236 104.942 81.8242 108.042C84.9247 111.143 86.6668 115.349 86.6668 119.733H4" stroke="#0E1913" stroke-width="8" stroke-linecap="round" stroke-linejoin="round"/>
<path d="M32.9331 103.2H49.4665" stroke="#0E1913" stroke-width="8" stroke-linecap="round" stroke-linejoin="round"/>
<path d="M12.2666 61.8662H128" stroke="#0E1913" stroke-width="8" stroke-linecap="round" stroke-linejoin="round"/>
<path d="M70.1338 4V12.2667" stroke="#0E1913" stroke-width="8" stroke-linecap="round" stroke-linejoin="round"/>
<path d="M119.733 61.8665C119.733 48.7119 114.508 36.0959 105.206 26.7941C95.9038 17.4923 83.2878 12.2666 70.1333 12.2666C56.9788 12.2666 44.3626 17.4923 35.0607 26.7941C25.7589 36.0959 20.5332 48.7119 20.5332 61.8665" stroke="#0E1913" stroke-width="8" stroke-linecap="round" stroke-linejoin="round"/>
<path d="M61.8667 78.3998H101.271C104.335 78.3976 107.338 77.5444 109.945 75.9346C112.552 74.3254 114.661 72.0229 116.035 69.2844L119.521 62.293" stroke="#0E1913" stroke-width="8" stroke-linecap="round" stroke-linejoin="round"/>
</svg>
