<svg width="154" height="154" viewBox="0 0 154 154" fill="none" xmlns="http://www.w3.org/2000/svg">
<path d="M41.7083 12.8335H32.0833C25.025 12.8335 19.25 18.6085 19.25 25.6668V102.522C19.25 109.581 25.025 115.356 32.0833 115.356H41.7083V12.8335Z" fill="#0E1913"/>
<path d="M129.065 68.9601L96.2501 36.1485V25.6668C96.2501 18.6085 90.4751 12.8335 83.4168 12.8335H60.9584V115.356H83.4168C90.4751 115.356 96.2501 109.581 96.2501 102.522V90.6131L103.052 97.4148L112.128 88.3416L97.1677 73.3812L76.952 53.1655C75.7392 51.9527 75.0751 50.3293 75.0783 48.5968C75.0815 46.8835 75.7424 45.2826 76.952 44.0795C79.3711 41.6572 83.6221 41.6636 86.038 44.0795L99.4584 57.5031L120.043 78.0878L119.812 78.0172L120.162 78.2482C120.582 78.8802 121.917 81.2897 121.917 86.4808V128.189H70.5834C64.4395 128.189 59.0174 122.95 57.9651 116.001L57.8913 115.5H44.9136L45.2793 117.919C47.2717 131.089 58.1512 141.022 70.5867 141.022H134.753V86.4808C134.75 75.3415 130.438 70.2851 129.065 68.9601Z" fill="#0E1913"/>
</svg>
