<svg width="196" height="104" viewBox="0 0 196 104" fill="none" xmlns="http://www.w3.org/2000/svg">
<path d="M119.081 3.73931C118.712 1.57987 116.841 0 114.649 0H13.563C10.6498 0 8.29095 2.36157 8.29095 5.26941C8.29095 8.18261 10.6498 10.5415 13.563 10.5415H38.1637C41.0769 10.5415 43.4358 12.9035 43.4358 15.814C43.4358 18.7245 41.0769 21.0861 38.1637 21.0861H5.27209C2.36157 21.0861 0 23.4476 0 26.3582C0 29.2687 2.36157 31.6272 5.27209 31.6272H50.1048C52.6773 31.6272 54.7644 33.7173 54.7644 36.2898C54.7644 38.8623 52.6773 40.9494 50.1048 40.9494H26.2858C23.3726 40.9494 21.0137 43.3114 21.0137 46.2219C21.0137 49.132 23.3726 51.494 26.2858 51.494H43.8404C46.4152 51.494 48.5027 53.5811 48.5027 56.1536C48.5027 58.7257 46.4152 60.8132 43.8404 60.8132H19.6057C16.6925 60.8132 14.3336 63.1747 14.3336 66.0853C14.3336 68.9958 16.6925 71.3573 19.6057 71.3573H52.9158L55.0166 83.2406H67.0829C66.3731 84.9648 65.9685 86.8471 65.9685 88.8289C65.9685 96.9618 72.5598 103.553 80.693 103.553C88.8228 103.553 95.4144 96.9618 95.4144 88.8289C95.4144 86.8471 95.0098 84.9648 94.3001 83.2406H132.597L119.081 3.73931ZM87.0293 88.8285C87.0293 92.3297 84.1938 95.1652 80.6926 95.1652C77.1891 95.1652 74.3532 92.3297 74.3532 88.8285C74.3532 86.3923 75.7417 84.3021 77.7572 83.2402H83.6253C85.6405 84.3021 87.0293 86.3919 87.0293 88.8285Z" fill="black"/>
<path d="M195.846 74.0072L189.798 44.1704L167.714 10.1924H127.505L139.959 83.2402H154.667C153.96 84.9644 153.555 86.8467 153.555 88.8285C153.555 96.9614 160.147 103.553 168.277 103.553C176.41 103.553 183.001 96.9614 183.001 88.8285C183.001 86.8467 182.597 84.9644 181.887 83.2402H188.296C190.608 83.2402 192.797 82.2036 194.261 80.4128C195.722 78.6254 196.306 76.2719 195.846 74.0072ZM150.265 23.786H160.338L173.416 43.9017H153.697L150.265 23.786ZM174.616 88.8285C174.616 92.3297 171.781 95.1652 168.277 95.1652C164.779 95.1652 161.94 92.3297 161.94 88.8285C161.94 86.3923 163.332 84.3022 165.344 83.2402H171.212C173.228 84.3022 174.616 86.3919 174.616 88.8285Z" fill="black"/>
</svg>
