<svg width="124" height="124" viewBox="0 0 124 124" fill="none" xmlns="http://www.w3.org/2000/svg">
<rect x="0.0644531" y="97.8159" width="101" height="101" rx="10" transform="rotate(-75.4296 0.0644531 97.8159)" fill="#F0E583"/>
<rect x="12" y="11" width="101" height="101" rx="10" fill="#F0E583"/>
<path d="M92.5802 86.8255L83.569 71.6041C87.8504 66.689 90.4644 60.2024 90.4644 53.1012C90.4644 37.5808 77.9878 25 62.5961 25C47.2043 25 34.7278 37.5808 34.7278 53.1012C34.7278 60.1403 37.2942 66.5742 41.5353 71.5061L41.5069 71.4702L32.4175 86.8303C32.1542 87.268 32 87.7966 32 88.3611C32 90.0138 33.3283 91.3532 34.9673 91.3532C35.1357 91.3532 35.2994 91.3389 35.4583 91.3125L35.4417 91.3149L41.6136 90.296L43.8599 96.0985C44.275 97.1509 45.238 97.8995 46.386 97.9904H46.3955C46.4714 97.9952 46.5449 98 46.6208 98C47.7119 98 48.6678 97.4044 49.1826 96.5195L49.1897 96.5051L58.1439 80.8628C59.4769 81.102 61.0187 81.2455 62.5913 81.2574H62.6008C64.1189 81.2455 65.5966 81.1139 67.0364 80.87L66.8727 80.8939L75.8127 96.5027C76.3345 97.4021 77.2881 97.9976 78.3792 97.9976C78.4527 97.9976 78.5286 97.9928 78.6021 97.988C79.7597 97.8996 80.7274 97.1509 81.133 96.1153L81.1401 96.0961L83.3864 90.2936L89.5583 91.3125C89.7006 91.3365 89.8643 91.3508 90.0327 91.3508C91.6717 91.3508 93 90.0114 93 88.3587C93 87.7942 92.8458 87.2656 92.5754 86.816L92.5825 86.8303L92.5802 86.8255ZM47.1308 88.1291L46.2556 85.8688C45.7978 84.7471 44.7209 83.9721 43.4637 83.9721C43.3048 83.9721 43.1506 83.9841 42.9988 84.008L43.0154 84.0056L40.7692 84.3787L45.9425 75.6367C47.757 77.0263 49.8277 78.2294 52.0432 79.1527L52.2282 79.222L47.1308 88.1291ZM40.6553 53.1538C40.6553 40.9341 50.4777 31.0297 62.5961 31.0297C74.7145 31.0297 84.5368 40.9341 84.5368 53.1538C84.5368 65.3735 74.7145 75.2779 62.5961 75.2779C50.4848 75.2636 40.6696 65.3663 40.6553 53.1562V53.1538ZM81.9703 83.9984C81.828 83.9745 81.6643 83.9602 81.4983 83.9602C80.2483 83.9602 79.1785 84.7399 78.7397 85.8425L78.7326 85.8616L77.8573 88.1219L72.7932 79.2794C75.2031 78.3036 77.2857 77.1148 79.1809 75.6869L79.1074 75.7396L84.219 84.3715L81.9703 83.9984ZM62.5961 34.6174C52.444 34.6174 44.2133 42.9169 44.2133 53.1538C44.2133 63.3907 52.444 71.6902 62.5961 71.6902C72.7481 71.6902 80.9788 63.3907 80.9788 53.1538C80.967 42.9217 72.7434 34.6294 62.5961 34.6174ZM62.5961 65.7108C55.7197 65.7108 50.1432 60.0876 50.1432 53.1538C50.1432 46.22 55.7197 40.5969 62.5961 40.5969C69.4724 40.5969 75.0489 46.22 75.0489 53.1538C75.0394 60.0853 69.47 65.7012 62.5961 65.7108ZM68.9197 48.7314H66.2418L65.414 46.1674C64.9206 45.0696 63.8437 44.3209 62.5961 44.3209C61.3484 44.3209 60.2692 45.0696 59.7853 46.1483L59.7782 46.1674L58.9503 48.7314H56.2748C54.6381 48.7314 53.3098 50.0684 53.3098 51.7211C53.3098 52.7113 53.7866 53.5891 54.5242 54.1345L54.5337 54.1392L56.697 55.7274L55.8692 58.289C55.7766 58.5665 55.7245 58.8846 55.7245 59.2146C55.7245 60.865 57.0528 62.2044 58.6894 62.2044C59.3441 62.2044 59.9489 61.9915 60.4399 61.628L60.4305 61.6327L62.5961 60.047L64.7617 61.6327C65.2432 61.9891 65.848 62.202 66.5027 62.202C68.1394 62.202 69.4677 60.8626 69.4677 59.2122C69.4677 58.8822 69.4155 58.5641 69.3159 58.2651L69.323 58.2866L68.4975 55.725L70.6608 54.1392C71.4056 53.5891 71.8847 52.7113 71.8847 51.7188C71.8847 50.0684 70.5564 48.729 68.9197 48.729V48.7314Z" fill="#0E1913"/>
</svg>
