<svg width="124" height="124" viewBox="0 0 124 124" fill="none" xmlns="http://www.w3.org/2000/svg">
<rect y="97.752" width="101" height="101" rx="10" transform="rotate(-75.4296 0 97.752)" fill="#F0E583"/>
<rect x="11.9355" y="10.936" width="101" height="101" rx="10" fill="#F0E583"/>
<path d="M91.9008 71.2419C94.0045 70.3342 95.4746 68.2467 95.4746 65.8121C95.4746 63.3104 93.9191 61.1823 91.7241 60.3152C93.0096 59.2289 93.84 57.6287 93.84 55.8154C93.84 52.5441 91.19 49.8941 87.9208 49.8941H74.4295C75.7251 47.3437 76.85 43.9728 76.4662 39.9401C76.1068 36.1449 72.9065 29.4358 67.9723 29.0398C64.171 28.7352 63.4359 30.1607 63.4359 33.9742C63.4359 33.9742 63.4786 37.6679 63.4786 40.0356C63.4786 44.2776 62.0673 46.436 57.0802 50.012C50.501 54.7291 49.3599 57.1637 49.3599 57.1637V85.3221C49.3599 88.8594 52.2271 91.7266 55.7643 91.7266H68.0495H83.0434C86.3168 91.7266 90.7394 90.1468 90.7394 85.8074C90.7394 84.1829 90.0856 82.7127 89.0256 81.6426C91.8887 81.2283 94.096 78.7875 94.096 75.8086C94.0959 73.9589 93.2307 72.3283 91.9008 71.2419Z" fill="#0E1913"/>
<path d="M41.5029 55.0923H32.1358C30.3691 55.0923 28.9355 56.5238 28.9355 58.2945V91.7995C28.9355 93.5661 30.3691 94.9997 32.1358 94.9997H41.5029C43.2715 94.9997 44.7052 93.5661 44.7052 91.7995V58.2945C44.7052 56.5238 43.2717 55.0923 41.5029 55.0923ZM37.5006 89.917C35.8639 89.917 34.5359 88.589 34.5359 86.9523C34.5359 85.3156 35.8639 83.9875 37.5006 83.9875C39.1413 83.9875 40.4653 85.3156 40.4653 86.9523C40.4653 88.589 39.1413 89.917 37.5006 89.917Z" fill="#0E1913"/>
</svg>
