<svg width="124" height="124" viewBox="0 0 124 124" fill="none" xmlns="http://www.w3.org/2000/svg">
<rect y="97.752" width="101" height="101" rx="10" transform="rotate(-75.4296 0 97.752)" fill="#F0E583"/>
<rect x="11.9355" y="10.936" width="101" height="101" rx="10" fill="#F0E583"/>
<path d="M91.9652 64.2419C94.069 63.3342 95.5391 61.2467 95.5391 58.8121C95.5391 56.3104 93.9836 54.1823 91.7886 53.3152C93.074 52.2289 93.9044 50.6287 93.9044 48.8154C93.9044 45.5441 91.2545 42.8941 87.9852 42.8941H74.494C75.7895 40.3437 76.9144 36.9728 76.5307 32.9401C76.1712 29.1449 72.971 22.4358 68.0367 22.0398C64.2354 21.7352 63.5004 23.1607 63.5004 26.9742C63.5004 26.9742 63.543 30.6679 63.543 33.0356C63.543 37.2776 62.1318 39.436 57.1446 43.012C50.5655 47.7291 49.4243 50.1637 49.4243 50.1637V78.3221C49.4243 81.8594 52.2916 84.7266 55.8288 84.7266H68.1139H83.1079C86.3813 84.7266 90.8039 83.1468 90.8039 78.8074C90.8039 77.1829 90.1501 75.7127 89.09 74.6426C91.9531 74.2283 94.1605 71.7875 94.1605 68.8086C94.1603 66.9589 93.2952 65.3283 91.9652 64.2419Z" fill="#0E1913"/>
<path d="M41.5674 48.0923H32.2002C30.4336 48.0923 29 49.5238 29 51.2945V84.7995C29 86.5661 30.4336 87.9997 32.2002 87.9997H41.5674C43.336 87.9997 44.7697 86.5661 44.7697 84.7995V51.2945C44.7697 49.5238 43.3361 48.0923 41.5674 48.0923ZM37.565 82.917C35.9283 82.917 34.6003 81.589 34.6003 79.9523C34.6003 78.3156 35.9283 76.9875 37.565 76.9875C39.2058 76.9875 40.5298 78.3156 40.5298 79.9523C40.5298 81.589 39.2058 82.917 37.565 82.917Z" fill="#0E1913"/>
</svg>
