<svg width="124" height="124" viewBox="0 0 124 124" fill="none" xmlns="http://www.w3.org/2000/svg">
<rect x="12" y="11" width="101" height="101" rx="10" fill="#F0E583"/>
<rect x="0.0644531" y="97.752" width="101" height="101" rx="10" transform="rotate(-75.4296 0.0644531 97.752)" fill="#F0E583"/>
<path d="M95.9772 73.5679C95.9772 81.1088 80.9908 83.8133 62.5045 83.8133C44.0181 83.8133 29.0317 81.1088 29.0317 73.5679C29.0317 66.027 44.0181 56.4497 62.5045 56.4497C80.9908 56.4497 95.9772 65.9952 95.9772 73.5679Z" stroke="#0E1913" stroke-width="6" stroke-miterlimit="10"/>
<path d="M78.4453 56.6094L74.9453 70.5776" stroke="#0E1913" stroke-width="6" stroke-miterlimit="10"/>
<path d="M63.0771 57.1499L59.6089 71.1181" stroke="#0E1913" stroke-width="6" stroke-miterlimit="10"/>
<path d="M47.7412 57.6592L44.2412 71.6592" stroke="#0E1913" stroke-width="6" stroke-miterlimit="10"/>
<path d="M29.0318 83.8135H95.85C95.8503 87.0181 94.5882 90.0939 92.3371 92.3748C90.086 94.6556 87.0271 95.958 83.8227 95.9998H41.1864C37.9543 95.9998 34.8547 94.7159 32.5693 92.4305C30.2839 90.1451 29 87.0455 29 83.8135H29.0318Z" stroke="#0E1913" stroke-width="6" stroke-miterlimit="10"/>
<path d="M47.2956 26C47.2956 29.5318 44.1138 29.5318 44.1138 33.0955C44.1138 36.6591 47.2956 36.6591 47.2956 40.1909C47.2956 43.7227 44.1138 43.7545 44.1138 47.3182" stroke="#0E1913" stroke-width="6" stroke-miterlimit="10"/>
<path d="M65.6862 29.0547C65.6862 32.5865 62.5044 32.5865 62.5044 36.1501C62.5044 39.7138 65.6862 39.682 65.6862 43.2456C65.6862 46.8092 62.5044 46.682 62.5044 50.341" stroke="#0E1913" stroke-width="6" stroke-miterlimit="10"/>
<path d="M83.8229 26C83.8229 29.5318 80.6411 29.5318 80.6411 33.0955C80.6411 36.6591 83.8229 36.6591 83.8229 40.1909C83.8229 43.7227 80.6411 43.7545 80.6411 47.3182" stroke="#0E1913" stroke-width="6" stroke-miterlimit="10"/>
</svg>
